<svg width="131" height="63" viewBox="0 0 131 63" fill="none" xmlns="http://www.w3.org/2000/svg">
<g id="Logo">
<g id="&#216;&#179;&#217;&#130;&#217;&#129;&#219;&#140;&#217;&#134;&#217;&#128;&#217;&#128;&#217;&#128;&#217;&#128;&#217;&#128;&#217;&#128;&#217;&#128;&#217;&#128;&#217;&#128;&#217;&#128;&#217;&#128;&#217;&#128;&#217;&#128;&#217;&#128;&#217;&#128;&#217;&#128;&#217;&#128;&#217;&#128;&#217;&#128;&#217;&#128;&#217;&#136;">
<path d="M35.0715 58.6755H34.122C34.0351 59.944 33.489 60.9329 32.4836 61.6421C31.4845 62.3571 30.1161 62.7146 28.3784 62.7146H27.3172V60.5004H28.3225C30.445 60.5004 31.5962 59.8921 31.7761 58.6755H30.6684C29.5017 58.6755 28.608 58.3958 27.9874 57.8365C27.3668 57.2714 27.0565 56.4584 27.0565 55.3974C27.0565 54.8785 27.131 54.3999 27.2799 53.9617C27.4351 53.5177 27.6585 53.1285 27.9502 52.7941C28.2481 52.4539 28.6266 52.1886 29.0859 51.9984C29.5513 51.8081 30.0757 51.7129 30.6591 51.7129C31.7451 51.7129 32.5953 52.0416 33.2097 52.6989C33.8241 53.3563 34.1313 54.2298 34.1313 55.3196V56.4267H35.0715C35.1398 56.4267 35.1956 56.5478 35.2391 56.79C35.2825 57.0321 35.3042 57.2657 35.3042 57.4905V57.5857C35.3042 57.8221 35.2825 58.0642 35.2391 58.3122C35.2018 58.5544 35.146 58.6755 35.0715 58.6755ZM29.3558 55.3629C29.3558 55.7434 29.452 56.0173 29.6444 56.1845C29.843 56.346 30.1812 56.4267 30.6591 56.4267H31.8134V55.311C31.8134 54.3653 31.4162 53.8925 30.6218 53.8925C29.7778 53.8925 29.3558 54.3826 29.3558 55.3629Z" fill="#CB1B1B"/>
<path d="M37.3987 56.4267C37.4732 56.4267 37.5291 56.5478 37.5663 56.79C37.6097 57.0321 37.6315 57.2657 37.6315 57.4905V57.5857C37.6315 57.8221 37.6097 58.0642 37.5663 58.3122C37.5291 58.5544 37.4732 58.6755 37.3987 58.6755H34.9784C34.9039 58.6755 34.8481 58.5544 34.8109 58.3122C34.7674 58.0642 34.7457 57.8221 34.7457 57.5857V57.4905C34.7457 57.2657 34.7674 57.0321 34.8109 56.79C34.8481 56.5478 34.9039 56.4267 34.9784 56.4267H37.3987Z" fill="#CB1B1B"/>
<path d="M39.726 56.4267C39.8004 56.4267 39.8563 56.5478 39.8935 56.79C39.937 57.0321 39.9587 57.2657 39.9587 57.4905V57.5857C39.9587 57.8221 39.937 58.0642 39.8935 58.3122C39.8563 58.5544 39.8004 58.6755 39.726 58.6755H37.3056C37.2312 58.6755 37.1753 58.5544 37.1381 58.3122C37.0946 58.0642 37.0729 57.8221 37.0729 57.5857V57.4905C37.0729 57.2657 37.0946 57.0321 37.1381 56.79C37.1753 56.5478 37.2312 56.4267 37.3056 56.4267H39.726Z" fill="#CB1B1B"/>
<path d="M42.0532 56.4267C42.1277 56.4267 42.1835 56.5478 42.2208 56.79C42.2642 57.0321 42.2859 57.2657 42.2859 57.4905V57.5857C42.2859 57.8221 42.2642 58.0642 42.2208 58.3122C42.1835 58.5544 42.1277 58.6755 42.0532 58.6755H39.6329C39.5584 58.6755 39.5026 58.5544 39.4653 58.3122C39.4219 58.0642 39.4002 57.8221 39.4002 57.5857V57.4905C39.4002 57.2657 39.4219 57.0321 39.4653 56.79C39.5026 56.5478 39.5584 56.4267 39.6329 56.4267H42.0532Z" fill="#CB1B1B"/>
<path d="M44.3804 56.4267C44.4549 56.4267 44.5107 56.5478 44.548 56.79C44.5914 57.0321 44.6131 57.2657 44.6131 57.4905V57.5857C44.6131 57.8221 44.5914 58.0642 44.548 58.3122C44.5107 58.5544 44.4549 58.6755 44.3804 58.6755H41.9601C41.8856 58.6755 41.8298 58.5544 41.7925 58.3122C41.7491 58.0642 41.7274 57.8221 41.7274 57.5857V57.4905C41.7274 57.2657 41.7491 57.0321 41.7925 56.79C41.8298 56.5478 41.8856 56.4267 41.9601 56.4267H44.3804Z" fill="#CB1B1B"/>
<path d="M46.7077 56.4267C46.7821 56.4267 46.838 56.5478 46.8752 56.79C46.9187 57.0321 46.9404 57.2657 46.9404 57.4905V57.5857C46.9404 57.8221 46.9187 58.0642 46.8752 58.3122C46.838 58.5544 46.7821 58.6755 46.7077 58.6755H44.2873C44.2129 58.6755 44.157 58.5544 44.1198 58.3122C44.0763 58.0642 44.0546 57.8221 44.0546 57.5857V57.4905C44.0546 57.2657 44.0763 57.0321 44.1198 56.79C44.157 56.5478 44.2129 56.4267 44.2873 56.4267H46.7077Z" fill="#CB1B1B"/>
<path d="M49.0349 56.4267C49.1094 56.4267 49.1652 56.5478 49.2024 56.79C49.2459 57.0321 49.2676 57.2657 49.2676 57.4905V57.5857C49.2676 57.8221 49.2459 58.0642 49.2024 58.3122C49.1652 58.5544 49.1094 58.6755 49.0349 58.6755H46.6146C46.5401 58.6755 46.4842 58.5544 46.447 58.3122C46.4036 58.0642 46.3818 57.8221 46.3818 57.5857V57.4905C46.3818 57.2657 46.4036 57.0321 46.447 56.79C46.4842 56.5478 46.5401 56.4267 46.6146 56.4267H49.0349Z" fill="#CB1B1B"/>
<path d="M51.3621 56.4267C51.4366 56.4267 51.4924 56.5478 51.5297 56.79C51.5731 57.0321 51.5948 57.2657 51.5948 57.4905V57.5857C51.5948 57.8221 51.5731 58.0642 51.5297 58.3122C51.4924 58.5544 51.4366 58.6755 51.3621 58.6755H48.9418C48.8673 58.6755 48.8115 58.5544 48.7742 58.3122C48.7308 58.0642 48.7091 57.8221 48.7091 57.5857V57.4905C48.7091 57.2657 48.7308 57.0321 48.7742 56.79C48.8115 56.5478 48.8673 56.4267 48.9418 56.4267H51.3621Z" fill="#CB1B1B"/>
<path d="M53.6894 56.4267C53.7638 56.4267 53.8197 56.5478 53.8569 56.79C53.9004 57.0321 53.9221 57.2657 53.9221 57.4905V57.5857C53.9221 57.8221 53.9004 58.0642 53.8569 58.3122C53.8197 58.5544 53.7638 58.6755 53.6894 58.6755H51.269C51.1946 58.6755 51.1387 58.5544 51.1015 58.3122C51.058 58.0642 51.0363 57.8221 51.0363 57.5857V57.4905C51.0363 57.2657 51.058 57.0321 51.1015 56.79C51.1387 56.5478 51.1946 56.4267 51.269 56.4267H53.6894Z" fill="#CB1B1B"/>
<path d="M56.0166 56.4267C56.0911 56.4267 56.1469 56.5478 56.1841 56.79C56.2276 57.0321 56.2493 57.2657 56.2493 57.4905V57.5857C56.2493 57.8221 56.2276 58.0642 56.1841 58.3122C56.1469 58.5544 56.0911 58.6755 56.0166 58.6755H53.5963C53.5218 58.6755 53.4659 58.5544 53.4287 58.3122C53.3853 58.0642 53.3635 57.8221 53.3635 57.5857V57.4905C53.3635 57.2657 53.3853 57.0321 53.4287 56.79C53.4659 56.5478 53.5218 56.4267 53.5963 56.4267H56.0166Z" fill="#CB1B1B"/>
<path d="M58.3438 56.4267C58.4183 56.4267 58.4741 56.5478 58.5114 56.79C58.5548 57.0321 58.5765 57.2657 58.5765 57.4905V57.5857C58.5765 57.8221 58.5548 58.0642 58.5114 58.3122C58.4741 58.5544 58.4183 58.6755 58.3438 58.6755H55.9235C55.849 58.6755 55.7932 58.5544 55.7559 58.3122C55.7125 58.0642 55.6908 57.8221 55.6908 57.5857V57.4905C55.6908 57.2657 55.7125 57.0321 55.7559 56.79C55.7932 56.5478 55.849 56.4267 55.9235 56.4267H58.3438Z" fill="#CB1B1B"/>
<path d="M60.671 56.4267C60.7455 56.4267 60.8014 56.5478 60.8386 56.79C60.882 57.0321 60.9038 57.2657 60.9038 57.4905V57.5857C60.9038 57.8221 60.882 58.0642 60.8386 58.3122C60.8014 58.5544 60.7455 58.6755 60.671 58.6755H58.2507C58.1763 58.6755 58.1204 58.5544 58.0832 58.3122C58.0397 58.0642 58.018 57.8221 58.018 57.5857V57.4905C58.018 57.2657 58.0397 57.0321 58.0832 56.79C58.1204 56.5478 58.1763 56.4267 58.2507 56.4267H60.671Z" fill="#CB1B1B"/>
<path d="M62.9983 56.4267C63.0727 56.4267 63.1286 56.5478 63.1658 56.79C63.2093 57.0321 63.231 57.2657 63.231 57.4905V57.5857C63.231 57.8221 63.2093 58.0642 63.1658 58.3122C63.1286 58.5544 63.0727 58.6755 62.9983 58.6755H60.578C60.5035 58.6755 60.4476 58.5544 60.4104 58.3122C60.367 58.0642 60.3452 57.8221 60.3452 57.5857V57.4905C60.3452 57.2657 60.367 57.0321 60.4104 56.79C60.4476 56.5478 60.5035 56.4267 60.578 56.4267H62.9983Z" fill="#CB1B1B"/>
<path d="M65.3255 56.4267C65.4 56.4267 65.4558 56.5478 65.4931 56.79C65.5365 57.0321 65.5582 57.2657 65.5582 57.4905V57.5857C65.5582 57.8221 65.5365 58.0642 65.4931 58.3122C65.4558 58.5544 65.4 58.6755 65.3255 58.6755H62.9052C62.8307 58.6755 62.7749 58.5544 62.7376 58.3122C62.6942 58.0642 62.6725 57.8221 62.6725 57.5857V57.4905C62.6725 57.2657 62.6942 57.0321 62.7376 56.79C62.7749 56.5478 62.8307 56.4267 62.9052 56.4267H65.3255Z" fill="#CB1B1B"/>
<path d="M67.6527 56.4267C67.7272 56.4267 67.7831 56.5478 67.8203 56.79C67.8637 57.0321 67.8855 57.2657 67.8855 57.4905V57.5857C67.8855 57.8221 67.8637 58.0642 67.8203 58.3122C67.7831 58.5544 67.7272 58.6755 67.6527 58.6755H65.2324C65.1579 58.6755 65.1021 58.5544 65.0649 58.3122C65.0214 58.0642 64.9997 57.8221 64.9997 57.5857V57.4905C64.9997 57.2657 65.0214 57.0321 65.0649 56.79C65.1021 56.5478 65.1579 56.4267 65.2324 56.4267H67.6527Z" fill="#CB1B1B"/>
<path d="M69.98 56.4267C70.0544 56.4267 70.1103 56.5478 70.1475 56.79C70.191 57.0321 70.2127 57.2657 70.2127 57.4905V57.5857C70.2127 57.8221 70.191 58.0642 70.1475 58.3122C70.1103 58.5544 70.0544 58.6755 69.98 58.6755H67.5596C67.4852 58.6755 67.4293 58.5544 67.3921 58.3122C67.3486 58.0642 67.3269 57.8221 67.3269 57.5857V57.4905C67.3269 57.2657 67.3486 57.0321 67.3921 56.79C67.4293 56.5478 67.4852 56.4267 67.5596 56.4267H69.98Z" fill="#CB1B1B"/>
<path d="M72.3072 56.4267C72.3817 56.4267 72.4375 56.5478 72.4748 56.79C72.5182 57.0321 72.5399 57.2657 72.5399 57.4905V57.5857C72.5399 57.8221 72.5182 58.0642 72.4748 58.3122C72.4375 58.5544 72.3817 58.6755 72.3072 58.6755H69.8869C69.8124 58.6755 69.7566 58.5544 69.7193 58.3122C69.6759 58.0642 69.6542 57.8221 69.6542 57.5857V57.4905C69.6542 57.2657 69.6759 57.0321 69.7193 56.79C69.7566 56.5478 69.8124 56.4267 69.8869 56.4267H72.3072Z" fill="#CB1B1B"/>
<path d="M74.6344 56.4267C74.7089 56.4267 74.7648 56.5478 74.802 56.79C74.8454 57.0321 74.8672 57.2657 74.8672 57.4905V57.5857C74.8672 57.8221 74.8454 58.0642 74.802 58.3122C74.7648 58.5544 74.7089 58.6755 74.6344 58.6755H72.2141C72.1396 58.6755 72.0838 58.5544 72.0465 58.3122C72.0031 58.0642 71.9814 57.8221 71.9814 57.5857V57.4905C71.9814 57.2657 72.0031 57.0321 72.0465 56.79C72.0838 56.5478 72.1396 56.4267 72.2141 56.4267H74.6344Z" fill="#CB1B1B"/>
<path d="M76.9617 56.4267C77.0361 56.4267 77.092 56.5478 77.1292 56.79C77.1727 57.0321 77.1944 57.2657 77.1944 57.4905V57.5857C77.1944 57.8221 77.1727 58.0642 77.1292 58.3122C77.092 58.5544 77.0361 58.6755 76.9617 58.6755H74.5413C74.4669 58.6755 74.411 58.5544 74.3738 58.3122C74.3303 58.0642 74.3086 57.8221 74.3086 57.5857V57.4905C74.3086 57.2657 74.3303 57.0321 74.3738 56.79C74.411 56.5478 74.4669 56.4267 74.5413 56.4267H76.9617Z" fill="#CB1B1B"/>
<path d="M79.2889 56.4267C79.3634 56.4267 79.4192 56.5478 79.4565 56.79C79.4999 57.0321 79.5216 57.2657 79.5216 57.4905V57.5857C79.5216 57.8221 79.4999 58.0642 79.4565 58.3122C79.4192 58.5544 79.3634 58.6755 79.2889 58.6755H76.8686C76.7941 58.6755 76.7382 58.5544 76.701 58.3122C76.6576 58.0642 76.6358 57.8221 76.6358 57.5857V57.4905C76.6358 57.2657 76.6576 57.0321 76.701 56.79C76.7382 56.5478 76.7941 56.4267 76.8686 56.4267H79.2889Z" fill="#CB1B1B"/>
<path d="M81.6161 56.4267C81.6906 56.4267 81.7464 56.5478 81.7837 56.79C81.8271 57.0321 81.8488 57.2657 81.8488 57.4905V57.5857C81.8488 57.8221 81.8271 58.0642 81.7837 58.3122C81.7464 58.5544 81.6906 58.6755 81.6161 58.6755H79.1958C79.1213 58.6755 79.0655 58.5544 79.0282 58.3122C78.9848 58.0642 78.9631 57.8221 78.9631 57.5857V57.4905C78.9631 57.2657 78.9848 57.0321 79.0282 56.79C79.0655 56.5478 79.1213 56.4267 79.1958 56.4267H81.6161Z" fill="#CB1B1B"/>
<path d="M89.1191 58.6755H88.9329C87.7414 58.6755 86.8415 58.3497 86.2333 57.6981C85.5259 58.3497 84.4864 58.6755 83.1149 58.6755H81.523C81.4486 58.6755 81.3927 58.5544 81.3555 58.3122C81.312 58.0642 81.2903 57.8221 81.2903 57.5857V57.4905C81.2903 57.2657 81.312 57.0321 81.3555 56.79C81.3989 56.5478 81.4548 56.4267 81.523 56.4267H83.1614C83.8689 56.4267 84.356 56.3229 84.6229 56.1153C84.896 55.9077 85.0325 55.5647 85.0325 55.0861V52.5086H87.369V55.0861C87.369 55.5877 87.4745 55.9366 87.6855 56.1326C87.9027 56.3287 88.3154 56.4267 88.9236 56.4267H89.1191C89.1874 56.4267 89.2432 56.5478 89.2867 56.79C89.3301 57.0321 89.3518 57.2657 89.3518 57.4905V57.5857C89.3518 57.8221 89.3301 58.0642 89.2867 58.3122C89.2494 58.5544 89.1936 58.6755 89.1191 58.6755ZM84.1016 49.4555L85.7027 47.9679L87.3039 49.4555L85.7027 50.9432L84.1016 49.4555Z" fill="#CB1B1B"/>
<path d="M91.7163 61.5383L93.2802 60.0766L94.8534 61.5383C94.8162 61.5729 94.7789 61.6104 94.7417 61.6507C94.661 61.7257 94.4438 61.9246 94.0901 62.2475C93.7363 62.5762 93.4664 62.827 93.2802 63L91.7163 61.5383ZM88.3465 61.5383L89.9197 60.0766L91.4836 61.5383L89.9197 63L88.3465 61.5383ZM97.311 58.6755H97.1155C95.9115 58.6755 95.0117 58.3526 94.4159 57.7068C93.7208 58.3526 92.6813 58.6755 91.2974 58.6755H89.054C88.9795 58.6755 88.9236 58.5544 88.8864 58.3122C88.8429 58.0642 88.8212 57.8221 88.8212 57.5857V57.4905C88.8212 57.2657 88.8429 57.0321 88.8864 56.79C88.9298 56.5478 88.9857 56.4267 89.054 56.4267H91.3439C92.0514 56.4267 92.5386 56.3229 92.8055 56.1153C93.0785 55.9077 93.215 55.5647 93.215 55.0861V52.5086H95.5516V55.0861C95.5516 55.5877 95.6571 55.9366 95.8681 56.1326C96.0853 56.3287 96.498 56.4267 97.1062 56.4267H97.311C97.3792 56.4267 97.4351 56.5478 97.4785 56.79C97.522 57.0321 97.5437 57.2657 97.5437 57.4905V57.5857C97.5437 57.8221 97.522 58.0642 97.4785 58.3122C97.4413 58.5544 97.3854 58.6755 97.311 58.6755Z" fill="#CB1B1B"/>
<path d="M100.597 48.7376L102.198 47.25L103.799 48.7376L102.198 50.2253L100.597 48.7376ZM106.825 58.6755H105.559C105.006 58.6755 104.438 58.6236 103.855 58.5198C103.272 58.4102 102.735 58.243 102.245 58.0181C101.283 58.4563 100.175 58.6755 98.9214 58.6755H97.2179C97.1434 58.6755 97.0876 58.5544 97.0503 58.3122C97.0069 58.0642 96.9852 57.8221 96.9852 57.5857V57.4905C96.9852 57.2657 97.0069 57.0321 97.0503 56.79C97.0938 56.5478 97.1496 56.4267 97.2179 56.4267H99.1914C98.8066 55.8847 98.6142 55.2764 98.6142 54.6017C98.6142 53.6446 98.968 52.8373 99.6754 52.18C100.383 51.5169 101.249 51.1853 102.273 51.1853C103.29 51.1853 104.153 51.514 104.861 52.1713C105.568 52.8229 105.922 53.6301 105.922 54.5931C105.922 55.2735 105.732 55.8847 105.354 56.4267H106.825C106.893 56.4267 106.949 56.5478 106.992 56.79C107.036 57.0321 107.057 57.2657 107.057 57.4905V57.5857C107.057 57.8221 107.036 58.0642 106.992 58.3122C106.955 58.5544 106.899 58.6755 106.825 58.6755ZM103.613 54.6104C103.613 54.2702 103.486 53.9819 103.231 53.7455C102.977 53.5091 102.654 53.3909 102.263 53.3909C101.86 53.3909 101.531 53.5062 101.277 53.7368C101.028 53.9617 100.904 54.2529 100.904 54.6104C100.904 54.939 101.038 55.2245 101.304 55.4666C101.578 55.7088 101.897 55.8299 102.263 55.8299C102.629 55.8299 102.946 55.7117 103.213 55.4753C103.48 55.2331 103.613 54.9448 103.613 54.6104Z" fill="#CB1B1B"/>
<path d="M116.338 58.6755H115.072C114.52 58.6755 113.952 58.6236 113.369 58.5198C112.785 58.4102 112.249 58.243 111.758 58.0181C110.796 58.4563 109.689 58.6755 108.435 58.6755H106.732C106.657 58.6755 106.601 58.5544 106.564 58.3122C106.521 58.0642 106.499 57.8221 106.499 57.5857V57.4905C106.499 57.2657 106.521 57.0321 106.564 56.79C106.607 56.5478 106.663 56.4267 106.732 56.4267H108.705C108.32 55.8847 108.128 55.2764 108.128 54.6017C108.128 53.6446 108.482 52.8373 109.189 52.18C109.897 51.5169 110.762 51.1853 111.786 51.1853C112.804 51.1853 113.667 51.514 114.374 52.1713C115.082 52.8229 115.435 53.6301 115.435 54.5931C115.435 55.2735 115.246 55.8847 114.868 56.4267H116.338C116.407 56.4267 116.463 56.5478 116.506 56.79C116.549 57.0321 116.571 57.2657 116.571 57.4905V57.5857C116.571 57.8221 116.549 58.0642 116.506 58.3122C116.469 58.5544 116.413 58.6755 116.338 58.6755ZM113.127 54.6104C113.127 54.2702 113 53.9819 112.745 53.7455C112.491 53.5091 112.168 53.3909 111.777 53.3909C111.374 53.3909 111.045 53.5062 110.79 53.7368C110.542 53.9617 110.418 54.2529 110.418 54.6104C110.418 54.939 110.551 55.2245 110.818 55.4666C111.091 55.7088 111.411 55.8299 111.777 55.8299C112.143 55.8299 112.46 55.7117 112.727 55.4753C112.993 55.2331 113.127 54.9448 113.127 54.6104ZM111.758 48.729L113.322 47.2673L114.896 48.729C114.858 48.7636 114.821 48.8011 114.784 48.8414C114.703 48.9164 114.486 49.1182 114.132 49.4469C113.778 49.7698 113.508 50.0177 113.322 50.1907L111.758 48.729ZM108.389 48.729L109.962 47.2673L111.526 48.729L109.962 50.1907L108.389 48.729Z" fill="#CB1B1B"/>
<path d="M116.245 56.4267H117.13C117.781 56.4267 118.25 56.32 118.535 56.1067C118.821 55.8876 118.964 55.5502 118.964 55.0947V52.5H121.3V52.846L121.309 55.112C121.316 55.5848 121.421 55.9222 121.626 56.124C121.837 56.3258 122.188 56.4267 122.678 56.4267C123.131 56.4267 123.46 56.3258 123.665 56.124C123.876 55.9164 123.981 55.5762 123.981 55.1034L123.99 52.846V52.5H126.318V52.846L126.327 55.0861C126.333 55.5704 126.439 55.9135 126.643 56.1153C126.848 56.3171 127.18 56.418 127.639 56.418C127.987 56.418 128.238 56.3229 128.393 56.1326C128.549 55.9423 128.626 55.605 128.626 55.1207V52.2232H131V55.1899C131 56.2681 130.708 57.1186 130.125 57.7414C129.542 58.3641 128.732 58.6755 127.695 58.6755C126.622 58.6755 125.793 58.3526 125.21 57.7068C124.62 58.3526 123.764 58.6755 122.641 58.6755C121.604 58.6755 120.779 58.3439 120.164 57.6808C119.5 58.3439 118.486 58.6755 117.12 58.6755H116.245C116.171 58.6755 116.115 58.5544 116.078 58.3122C116.034 58.0642 116.013 57.8221 116.013 57.5857V57.4905C116.013 57.2657 116.034 57.0321 116.078 56.79C116.121 56.5478 116.177 56.4267 116.245 56.4267Z" fill="#CB1B1B"/>
</g>
<g id="Vector">
<path d="M76.8502 0H91.8343L50.2118 46.2203H35.2277L76.8502 0Z" fill="#CB1B1B"/>
<path d="M93.537 0.381356L84.6071 10.2966L116.013 46.2203H130.997L93.537 0.381356Z" fill="#CB1B1B"/>
<path d="M41.6225 0H56.6065L14.9841 46.2203H0L41.6225 0Z" fill="#CB1B1B"/>
<path d="M59.5958 0H74.5799L16.3084 63H1.32435L59.5958 0Z" fill="#9E1515"/>
</g>
</g>
</svg>
