<svg width="17" height="16" viewBox="0 0 17 16" fill="none" xmlns="http://www.w3.org/2000/svg">
<g id="Group 52">
<path id="Vector" d="M8.5 16C12.9183 16 16.5 12.4183 16.5 8C16.5 3.58172 12.9183 0 8.5 0C4.08172 0 0.5 3.58172 0.5 8C0.5 12.4183 4.08172 16 8.5 16Z" fill="#4570B5"/>
<path id="Vector_2" opacity="0.5" d="M8.5 16C12.9183 16 16.5 12.4183 16.5 8C16.5 3.58172 12.9183 0 8.5 0C4.08172 0 0.5 3.58172 0.5 8C0.5 12.4183 4.08172 16 8.5 16Z" fill="#4570B5"/>
<path id="Vector_3" d="M7.06829 11.1275L4.83899 8.85996C4.81915 8.8404 4.80341 8.8171 4.79266 8.79141C4.78191 8.76571 4.77637 8.73813 4.77637 8.71028C4.77637 8.68242 4.78191 8.65485 4.79266 8.62915C4.80341 8.60346 4.81915 8.58015 4.83899 8.5606L6.01415 7.40455C6.05406 7.36526 6.10782 7.34324 6.16383 7.34324C6.21984 7.34324 6.2736 7.36526 6.31351 7.40455L7.08103 8.17843C7.10058 8.19827 7.12389 8.21402 7.14959 8.22477C7.17528 8.23552 7.20286 8.24106 7.23071 8.24106C7.25857 8.24106 7.28614 8.23552 7.31184 8.22477C7.33753 8.21402 7.36084 8.19827 7.38039 8.17843L10.702 4.85996C10.7216 4.84012 10.7449 4.82437 10.7706 4.81362C10.7963 4.80287 10.8239 4.79733 10.8517 4.79733C10.8796 4.79733 10.9072 4.80287 10.9329 4.81362C10.9586 4.82437 10.9819 4.84012 11.0014 4.85996L12.1638 6.02238C12.1867 6.04211 12.2051 6.06655 12.2177 6.09403C12.2303 6.12151 12.2368 6.15139 12.2368 6.18162C12.2368 6.21185 12.2303 6.24172 12.2177 6.2692C12.2051 6.29668 12.1867 6.32112 12.1638 6.34085L7.38676 11.137C7.36608 11.1589 7.34101 11.1761 7.3132 11.1876C7.28538 11.1991 7.25546 11.2045 7.22538 11.2036C7.19531 11.2027 7.16577 11.1955 7.13869 11.1824C7.11162 11.1692 7.08762 11.1505 7.06829 11.1275Z" fill="white"/>
</g>
</svg>
