<svg width="140" height="140" viewBox="0 0 140 140" fill="none" xmlns="http://www.w3.org/2000/svg">
<rect width="140" height="140" rx="70" fill="#EDEDED"/>
<path d="M10.8887 139.802C10.8887 138.533 15.4358 102.898 44.436 95.4791C71.786 88.4894 78.5089 90.5628 78.5089 90.5628C78.5089 90.5628 93.8738 89.9754 110.009 100.119C128.839 111.925 130.666 139.778 130.666 139.778L10.8887 139.802Z" fill="#F66262"/>
<path d="M45.3226 19.9606C33.4047 20.777 30.9172 36.2365 31.9684 44.9942C32.4696 49.1528 33.912 53.6344 31.8279 57.3289C30.3488 59.9251 27.3418 61.5404 26.1317 64.2658C24.6588 67.5727 26.2723 71.3142 27.4946 74.7092C28.717 78.1042 29.3282 82.4213 26.5412 84.8295C33.3619 86.3449 40.2376 87.8662 47.2294 88.0307C54.2213 88.1952 61.4392 86.9088 67.2759 83.1966" fill="#505050"/>
<path d="M37.6518 50.8981C29.3215 33.7763 39.6931 22.91 46.5444 18.9218C50.627 16.5723 55.5408 15.9379 60.308 15.6913C65.0752 15.4446 69.769 15.5209 74.365 16.5312C78.961 17.5415 83.3981 19.5503 86.6985 22.7632C92.5841 28.4724 94.1548 37.1302 93.8675 45.1595C93.536 54.6509 90.9766 63.9476 86.3807 72.3547C85.7695 73.4296 85.1094 74.5338 84.0215 75.1506C82.9336 75.7673 81.3079 75.6851 80.6295 74.6572" fill="#505050"/>
<path d="M65.8573 109.663C73.9676 109.986 80.8494 103.131 81.3689 91.1198L84.0092 30.0628L83.832 34.2801C83.8112 33.0588 83.3164 31.8891 82.4447 31.0002C81.573 30.1114 80.3871 29.5676 79.1198 29.4755L53.9211 27.6311C51.8622 27.4785 49.7924 27.7286 47.8369 28.3663C45.8813 29.004 44.0805 30.016 42.5433 31.3412C41.0062 32.6665 39.7645 34.2774 38.8932 36.0768C38.022 37.8761 37.5394 39.8266 37.4744 41.8102C37.1505 51.1024 37.1322 62.4621 38.489 69.346C41.2148 83.1962 52.3626 84.6528 52.3626 84.6528L51.7515 94.7732C51.642 96.6424 51.9201 98.5139 52.5696 100.279C53.2191 102.044 54.2271 103.667 55.5349 105.055C56.8428 106.442 58.4244 107.566 60.1881 108.361C61.9517 109.157 63.8622 109.607 65.8085 109.686L65.8573 109.663Z" fill="#FFBB9D"/>
<path d="M42.585 48.9834C42.585 49.4508 42.7781 49.8989 43.122 50.2294C43.4658 50.5599 43.9322 50.7455 44.4185 50.7455C44.6551 50.7566 44.8916 50.7221 45.1141 50.644C45.3366 50.566 45.5407 50.4461 45.7144 50.2912C45.888 50.1364 46.0277 49.9498 46.1253 49.7424C46.2229 49.5349 46.2763 49.3108 46.2826 49.0833C46.2826 48.6159 46.0894 48.1677 45.7455 47.8373C45.4017 47.5068 44.9353 47.3212 44.449 47.3212C44.212 47.3085 43.9748 47.3419 43.7516 47.4193C43.5283 47.4967 43.3235 47.6165 43.1495 47.7717C42.9755 47.9268 42.8359 48.1141 42.7389 48.3223C42.6419 48.5305 42.5895 48.7553 42.585 48.9834Z" fill="#505050"/>
<path d="M40.2125 47.6204C40.4509 47.8436 41.826 46.804 43.8246 46.757C45.8231 46.71 47.3205 47.6204 47.5283 47.3796C47.6322 47.2739 47.3816 46.8627 46.7338 46.434C45.8512 45.8794 44.811 45.6023 43.7574 45.641C42.7177 45.6667 41.7135 46.0103 40.891 46.6219C40.292 47.0977 40.0964 47.5206 40.2125 47.6204Z" fill="#505050"/>
<path d="M62.3682 48.9831C62.3682 49.4504 62.5613 49.8986 62.9052 50.2291C63.249 50.5595 63.7154 50.7452 64.2017 50.7452C64.4388 50.757 64.6759 50.7231 64.8992 50.6455C65.1224 50.5679 65.3272 50.448 65.5015 50.2931C65.6758 50.1382 65.8161 49.9513 65.9141 49.7435C66.012 49.5356 66.0657 49.311 66.0719 49.0829C66.0719 48.6156 65.8787 48.1674 65.5349 47.837C65.191 47.5065 64.7246 47.3208 64.2384 47.3208C64.0013 47.309 63.7641 47.3429 63.5409 47.4205C63.3176 47.4982 63.1128 47.618 62.9385 47.7729C62.7642 47.9278 62.6239 48.1147 62.526 48.3226C62.428 48.5304 62.3744 48.755 62.3682 48.9831Z" fill="#505050"/>
<path d="M59.868 47.4215C60.1064 47.6505 61.4815 46.6109 63.48 46.558C65.4786 46.5052 66.9698 47.4273 67.1471 47.1865C67.251 47.0749 67.0065 46.6637 66.3525 46.235C65.4711 45.6833 64.4333 45.4083 63.3822 45.4479C62.3432 45.4719 61.3392 45.8134 60.5158 46.4229C59.9475 46.8987 59.7519 47.3216 59.868 47.4215Z" fill="#505050"/>
<path d="M53.0476 61.8702C53.0476 61.7586 51.8253 61.5882 49.7901 61.4003C49.2767 61.365 48.7878 61.2769 48.6961 60.948C48.6363 60.4431 48.7387 59.9328 48.9895 59.4854C49.4377 58.2794 49.9021 57.0205 50.3829 55.7087C52.3204 50.3284 53.7016 45.9172 53.4755 45.8467C53.2493 45.7763 51.5014 50.0699 49.564 55.4443L48.2377 59.2387C47.935 59.8396 47.8614 60.5235 48.0299 61.1712C48.1079 61.343 48.2263 61.495 48.3759 61.6153C48.5254 61.7355 48.702 61.8208 48.8917 61.8643C49.1754 61.932 49.4672 61.9636 49.7595 61.9583C51.7886 62.0053 53.0476 61.9818 53.0476 61.8702Z" fill="#505050"/>
<path d="M52.3635 84.63C59.1843 84.5379 65.8446 82.6286 71.6033 79.1146C71.6033 79.1146 66.7139 88.8826 52.168 87.9956L52.3635 84.63Z" fill="#E49167"/>
<path d="M54.0624 66.4803C54.4282 66.0085 54.9131 65.6341 55.4714 65.3926C56.0296 65.1511 56.6427 65.0503 57.2527 65.1C57.6944 65.128 58.1258 65.2406 58.5215 65.4313C58.9172 65.6219 59.2692 65.8867 59.5569 66.2101C59.8329 66.5232 60.0025 66.91 60.0429 67.3184C60.0833 67.7269 59.9926 68.1375 59.783 68.495C59.2696 69.2351 58.145 69.4348 57.1855 69.2057C56.2325 68.9111 55.3497 68.438 54.588 67.8136C54.3523 67.6654 54.1454 67.4785 53.9768 67.2615C53.904 67.1551 53.8652 67.0305 53.8652 66.9032C53.8652 66.7759 53.904 66.6513 53.9768 66.5449" fill="#E49167"/>
<path d="M58.9517 63.032C58.6278 63.032 58.6889 65.1055 56.8737 66.6385C55.0585 68.1715 52.7483 68.0071 52.7422 68.3007C52.7422 68.43 53.2678 68.6884 54.2457 68.6884C55.5261 68.6728 56.7597 68.2235 57.7294 67.4197C58.6535 66.6509 59.2282 65.5653 59.3306 64.3947C59.3795 63.543 59.1228 63.0144 58.9517 63.032Z" fill="#505050"/>
<path d="M58.8659 44.0835C59.0798 44.6004 61.0661 44.2949 63.4191 44.5005C65.7721 44.7061 67.6973 45.27 67.9846 44.7942C68.1129 44.5651 67.7707 44.0835 66.9884 43.6195C65.9493 43.0294 64.7841 42.6747 63.5811 42.5821C62.3781 42.4894 61.169 42.6614 60.0454 43.0849C59.1959 43.4197 58.7742 43.8368 58.8659 44.0835Z" fill="#505050"/>
<path d="M40.7806 42.0404C41.1412 42.4692 42.5041 41.9758 44.1604 41.9053C45.8167 41.8349 47.2163 42.1168 47.5341 41.6469C47.6685 41.4237 47.4363 40.9949 46.8129 40.5955C45.9785 40.1133 45.0091 39.8917 44.0382 39.9612C43.0662 40.0021 42.1322 40.3349 41.3673 40.9127C40.7928 41.3767 40.6156 41.8114 40.7806 42.0404Z" fill="#505050"/>
<path d="M48.1271 18.0579C61.9458 10.1167 77.1579 15.033 88.8068 25.6937C91.3738 28.0432 93.6962 30.8332 97.0088 32.0902C100.572 33.4529 105.26 33.1004 107.435 36.1313C109.984 39.6555 106.824 44.8419 108.725 48.7421C110.467 52.3368 115.686 53.2531 117.715 56.7127C119.31 59.4204 118.455 62.786 117.819 65.8404C117.184 68.8947 117.012 72.554 119.457 74.6156L89.5708 86.3983C88.2426 86.9591 86.7772 87.1504 85.3415 86.9504C81.0327 86.2397 80.6171 82.4335 80.9288 79.2676C81.1672 76.9181 81.6317 74.3807 80.5377 72.2486C79.242 69.7346 76.0822 68.4424 74.9148 65.8697C72.843 61.3294 78.1113 56.4131 77.3229 51.5086C76.8339 48.4308 74.0042 46.1341 70.9972 44.9712C67.9902 43.8082 64.7021 43.4792 61.5913 42.6217C54.41 40.6129 48.3777 34.4984 45.1446 27.6027C44.3469 25.9374 44.2098 24.0494 44.7591 22.2939C45.3083 20.5383 46.5061 19.036 48.1271 18.0697V18.0579Z" fill="#505050"/>
<path d="M102.497 80.9184C102.548 80.8524 102.605 80.7914 102.668 80.7363C102.785 80.6247 102.956 80.4485 103.164 80.2077C103.764 79.5068 104.236 78.7121 104.557 77.8582C105.069 76.5011 105.166 75.0318 104.838 73.6233C104.391 71.7563 103.239 70.1152 101.605 69.0183C100.634 68.4204 99.5916 67.9372 98.5003 67.5793C97.2996 67.1908 96.1411 66.6912 95.041 66.0873C94.4635 65.7469 93.9423 65.3251 93.4948 64.8362C93.043 64.3192 92.6836 63.7337 92.4313 63.1035C91.9442 61.7863 91.7465 60.3863 91.8507 58.9919C91.9118 57.5646 92.1991 56.1373 92.4069 54.6807C92.677 53.2096 92.6997 51.7064 92.4741 50.2284C91.9424 47.2269 89.7972 44.5427 87.053 42.7277C84.3088 40.9127 81.0513 39.9729 77.9526 39.3445C74.854 38.716 71.7675 38.387 68.8889 37.8173C67.48 37.5498 66.0883 37.2047 64.7207 36.7835C64.0545 36.578 63.4189 36.3195 62.7894 36.0846C62.1599 35.8496 61.5671 35.5501 60.9559 35.2623C58.8024 34.1706 56.8157 32.7989 55.0519 31.1859C52.4937 28.8517 50.4559 26.042 49.0624 22.9275C48.8058 22.3813 48.6224 21.882 48.4513 21.4473C48.2801 21.0127 48.1701 20.6427 48.0846 20.3372C47.999 20.0318 47.9379 19.8203 47.889 19.65C47.8658 19.5708 47.8474 19.4904 47.834 19.4092C47.8715 19.4828 47.9021 19.5595 47.9257 19.6383L48.1457 20.3196C48.2374 20.625 48.3657 20.9892 48.5429 21.418C48.7202 21.8468 48.8974 22.3401 49.1541 22.8805C51.5816 28.1063 55.7748 32.3908 61.0537 35.0391C61.6282 35.321 62.2271 35.5853 62.8444 35.8437C63.4617 36.1022 64.0973 36.3254 64.7574 36.531C66.116 36.9415 67.4973 37.2788 68.895 37.5412C71.7614 38.0992 74.8295 38.434 77.9709 39.0508C81.1124 39.6675 84.3516 40.6014 87.1875 42.4751C88.5886 43.3905 89.8113 44.5357 90.7995 45.8584C91.7799 47.1385 92.4426 48.6172 92.7369 50.1814C92.9618 51.6893 92.9349 53.222 92.6574 54.7218C92.4496 56.1843 92.1563 57.6057 92.0952 59.0037C91.989 60.3592 92.1763 61.7212 92.6452 63.0037C92.8813 63.6067 93.2223 64.1668 93.6537 64.66C94.0802 65.1329 94.5789 65.5409 95.1327 65.87C96.2179 66.4665 97.3599 66.9621 98.5431 67.3502C99.6657 67.7158 100.737 68.213 101.733 68.8304C103.4 69.9693 104.568 71.6627 105.009 73.5822C105.332 75.0204 105.215 76.5175 104.673 77.8934C104.334 78.753 103.839 79.5483 103.212 80.2429C102.997 80.4891 102.757 80.7152 102.497 80.9184Z" fill="#717171"/>
<path d="M114.207 79.2792C114.23 79.2003 114.261 79.1236 114.299 79.0501L114.598 78.3746C114.952 77.5008 115.206 76.593 115.356 75.6668C115.596 74.2035 115.596 72.7132 115.356 71.2498C115.027 69.3141 114.268 67.4692 113.132 65.8402C112.465 64.8997 111.672 64.0484 110.772 63.3086C109.843 62.5274 108.786 61.8108 107.717 61.0296C106.592 60.246 105.567 59.3393 104.661 58.3277C103.726 57.2076 103.073 55.8949 102.754 54.4922C102.057 51.62 102.448 48.5363 102.063 45.435C101.92 43.8554 101.388 42.3313 100.511 40.9886C99.5364 39.6525 98.2182 38.582 96.6849 37.8814C95.1514 37.1663 93.5193 36.6659 91.8383 36.3954C90.182 36.0958 88.5257 35.9196 86.9 35.6964C83.7626 35.2587 80.6721 34.553 77.6652 33.5878C74.958 32.7064 72.3261 31.6243 69.7933 30.3514C67.5976 29.2129 65.4806 27.9396 63.4554 26.5393C60.5361 24.5067 57.8392 22.1943 55.4062 19.6378C54.9845 19.1796 54.5934 18.7802 54.2817 18.416L53.5055 17.488L53.0288 16.9006C52.973 16.8376 52.922 16.7709 52.876 16.7009C52.9425 16.7545 53.002 16.8157 53.0532 16.883L53.5544 17.4351L54.355 18.3456C54.6728 18.7039 55.0701 19.0915 55.4979 19.5203C57.9545 22.0387 60.6628 24.3189 63.5837 26.3279C65.6113 27.6987 67.726 28.9463 69.9155 30.0636C72.4434 31.3181 75.0667 32.3862 77.763 33.2588C80.7489 34.2137 83.8166 34.9134 86.9306 35.3499C88.5502 35.5731 90.2065 35.7493 91.8811 36.0488C93.5911 36.3253 95.2517 36.8336 96.8132 37.5584C98.3943 38.2836 99.7526 39.3906 100.755 40.7713C101.661 42.1681 102.206 43.7532 102.344 45.3939C102.729 48.548 102.344 51.62 103.011 54.4276C103.312 55.7909 103.939 57.068 104.844 58.1574C105.749 59.1611 106.775 60.0582 107.9 60.8299C108.957 61.6111 110.015 62.3336 110.956 63.1324C111.864 63.8888 112.663 64.7579 113.333 65.7168C114.477 67.3762 115.234 69.2536 115.552 71.2205C115.787 72.7011 115.772 74.2083 115.509 75.6845C115.343 76.6157 115.068 77.526 114.69 78.3981L114.36 79.0618C114.32 79.1406 114.268 79.2137 114.207 79.2792Z" fill="#717171"/>
</svg>
